<svg width="554" height="567" viewBox="0 0 554 567" fill="none" xmlns="http://www.w3.org/2000/svg">
<rect x="477.059" y="158" width="74" height="400" fill="white"/>
<rect x="188.059" width="195" height="79" fill="white"/>
<rect x="306.059" y="184" width="195" height="79" fill="white"/>
<rect x="191.059" y="488" width="360" height="79" fill="white"/>
<rect x="53.8539" y="333.994" width="254.951" height="79" transform="rotate(42.9762 53.8539 333.994)" fill="white"/>
<rect x="75.9128" y="161" width="254.951" height="79" transform="rotate(42.9762 75.9128 161)" fill="white"/>
<rect x="190.913" y="49" width="254.951" height="79" transform="rotate(42.9762 190.913 49)" fill="white"/>
<rect x="384.913" width="228.477" height="79" transform="rotate(42.9762 384.913 0)" fill="white"/>
<rect x="0.0588989" y="175.175" width="254.951" height="79" transform="rotate(-42.98 0.0588989 175.175)" fill="white"/>
<rect x="153.788" y="340.177" width="227.102" height="79" transform="rotate(-42.98 153.788 340.177)" fill="white"/>
<rect x="351.478" y="501.147" width="192.014" height="79" transform="rotate(-42.98 351.478 501.147)" fill="white"/>
<rect x="0.0588989" y="175" width="74" height="219" fill="white"/>
<rect x="166.059" y="300" width="74" height="219" fill="white"/>
</svg>
