<svg width="2221" height="567" viewBox="0 0 2221 567" fill="none" xmlns="http://www.w3.org/2000/svg">
<g clip-path="url(#clip0_18_2)">
<rect x="477.059" y="158" width="76" height="400" fill="black"/>
<rect x="188.059" width="197" height="79" fill="black"/>
<rect x="306.059" y="184" width="197" height="79" fill="black"/>
<rect x="191.059" y="488" width="362" height="79" fill="black"/>
<rect x="53.8539" y="333.994" width="256.951" height="79" transform="rotate(42.9762 53.8539 333.994)" fill="black"/>
<rect x="75.9128" y="161" width="256.951" height="79" transform="rotate(42.9762 75.9128 161)" fill="black"/>
<rect x="190.913" y="49" width="256.951" height="79" transform="rotate(42.9762 190.913 49)" fill="black"/>
<rect x="384.913" width="230.477" height="79" transform="rotate(42.9762 384.913 0)" fill="black"/>
<rect x="0.0588989" y="175.175" width="256.951" height="79" transform="rotate(-42.98 0.0588989 175.175)" fill="black"/>
<rect x="153.788" y="340.177" width="229.102" height="79" transform="rotate(-42.98 153.788 340.177)" fill="black"/>
<rect x="351.478" y="501.147" width="194.014" height="79" transform="rotate(-42.98 351.478 501.147)" fill="black"/>
<rect x="0.0588989" y="175" width="76" height="219" fill="black"/>
<rect x="166.059" y="300" width="76" height="219" fill="black"/>
<rect x="762.363" y="328.818" width="59.635" height="238.541" fill="black"/>
<rect x="607" y="457.505" width="59.635" height="109.854" fill="black"/>
<rect x="666.637" y="507.721" width="95.7299" height="59.6352" fill="black"/>
<rect x="607" y="409.637" width="167.92" height="59.6352" fill="black"/>
<rect x="607" y="299" width="215" height="59.6352" fill="black"/>
<rect x="889" y="97" width="76" height="470" fill="black"/>
<rect x="927" y="491" width="76" height="76" fill="black"/>
<rect x="851" y="97" width="76" height="76" fill="black"/>
<rect x="1211.36" y="328.818" width="59.635" height="238.541" fill="black"/>
<rect x="1056" y="457.505" width="59.635" height="109.854" fill="black"/>
<rect x="1115.64" y="507.721" width="95.7299" height="59.6352" fill="black"/>
<rect x="1056" y="409.637" width="167.92" height="59.6352" fill="black"/>
<rect x="1056" y="299" width="215" height="59.6352" fill="black"/>
<rect x="1336" y="299" width="76" height="268" fill="black"/>
<rect x="1443" y="299" width="76" height="268" fill="black"/>
<rect x="1336" y="299" width="290" height="76" fill="black"/>
<rect x="1550" y="299" width="76" height="268" fill="black"/>
<rect x="1691" y="299" width="76" height="268" fill="black"/>
<rect x="1865" y="97" width="76" height="470" fill="black"/>
<rect x="1767" y="299" width="98" height="76" fill="black"/>
<rect x="1767" y="491" width="98" height="76" fill="black"/>
<rect x="2161.36" y="328.818" width="59.635" height="238.541" fill="black"/>
<rect x="2006" y="457.505" width="59.635" height="109.854" fill="black"/>
<rect x="2065.64" y="507.721" width="95.7299" height="59.6352" fill="black"/>
<rect x="2006" y="409.637" width="167.92" height="59.6352" fill="black"/>
<rect x="2006" y="299" width="215" height="59.6352" fill="black"/>
</g>
<defs>
<clipPath id="clip0_18_2">
<rect width="2221" height="567" fill="white"/>
</clipPath>
</defs>
</svg>
