<svg width="554" height="567" viewBox="0 0 554 567" fill="none" xmlns="http://www.w3.org/2000/svg">
<rect x="477.059" y="158" width="76" height="400" fill="black"/>
<rect x="188.059" width="197" height="79" fill="black"/>
<rect x="306.059" y="184" width="197" height="79" fill="black"/>
<rect x="191.059" y="488" width="362" height="79" fill="black"/>
<rect x="53.8539" y="333.994" width="256.951" height="79" transform="rotate(42.9762 53.8539 333.994)" fill="black"/>
<rect x="75.9128" y="161" width="256.951" height="79" transform="rotate(42.9762 75.9128 161)" fill="black"/>
<rect x="190.913" y="49" width="256.951" height="79" transform="rotate(42.9762 190.913 49)" fill="black"/>
<rect x="384.913" width="230.477" height="79" transform="rotate(42.9762 384.913 0)" fill="black"/>
<rect x="0.0588989" y="175.175" width="256.951" height="79" transform="rotate(-42.98 0.0588989 175.175)" fill="black"/>
<rect x="153.788" y="340.177" width="229.102" height="79" transform="rotate(-42.98 153.788 340.177)" fill="black"/>
<rect x="351.478" y="501.147" width="194.014" height="79" transform="rotate(-42.98 351.478 501.147)" fill="black"/>
<rect x="0.0588989" y="175" width="76" height="219" fill="black"/>
<rect x="166.059" y="300" width="76" height="219" fill="black"/>
</svg>
