<svg width="100" height="100" viewBox="0 0 100 100" fill="none" xmlns="http://www.w3.org/2000/svg">
<rect width="100" height="100" rx="25" fill="white"/>
<mask id="mask0_88_20" style="mask-type:luminance" maskUnits="userSpaceOnUse" x="21" y="21" width="58" height="58">
<path d="M79 21H21V79H79V21Z" fill="white"/>
</mask>
<g mask="url(#mask0_88_20)">
<path d="M78.6921 37.1623H70.9448V78.0794H78.6921V37.1623Z" fill="#111111"/>
<path d="M61.1036 21H40.6885V29.0811H61.1036V21Z" fill="#111111"/>
<path d="M73.4575 39.8219H53.0424V47.903H73.4575V39.8219Z" fill="#111111"/>
<path d="M78.6921 70.9189H41.0026V79H78.6921V70.9189Z" fill="#111111"/>
<path d="M46.4486 73.2001L26.6382 55.1652L21.0001 61.0776L40.8105 79.1126L46.4486 73.2001Z" fill="#111111"/>
<path d="M48.3373 56.3194L29.4635 37.8783L24.8737 42.3629L43.7475 60.804L48.3373 56.3194Z" fill="#111111"/>
<path d="M61.6354 43.5328L42.7616 25.0917L38.1718 29.5763L57.0456 48.0174L61.6354 43.5328Z" fill="#111111"/>
<path d="M78.7985 36.9323L61.2977 21L55.6596 26.9125L73.1603 42.8447L78.7985 36.9323Z" fill="#111111"/>
<path d="M40.5335 21.1395L21.0061 38.9191L26.6446 44.8312L46.172 27.0516L40.5335 21.1395Z" fill="#111111"/>
<path d="M54.5264 39.7046L37.9158 54.8392L43.5564 60.7493L60.1671 45.6148L54.5264 39.7046Z" fill="#111111"/>
<path d="M72.5042 58.8732L57.7974 72.2637L63.4359 78.1758L78.1427 64.7852L72.5042 58.8732Z" fill="#111111"/>
<path d="M28.7534 38.9012H21.0061V61.3033H28.7534V38.9012Z" fill="#111111"/>
<path d="M46.1325 51.6878H38.3853V74.0899H46.1325V51.6878Z" fill="#111111"/>
</g>
</svg>
