<svg width="500" height="490" viewBox="0 0 500 490" fill="none" xmlns="http://www.w3.org/2000/svg">
<g clip-path="url(#clip0_25_16)">
<rect x="194.967" y="454.602" width="35.2603" height="190.649" transform="rotate(90 194.967 454.602)" fill="black"/>
<rect x="182.561" y="373.122" width="92.9148" height="37.653" transform="rotate(90 182.561 373.122)" fill="black"/>
<rect x="500" y="90.0564" width="95.775" height="37.653" transform="rotate(90 500 90.0564)" fill="black"/>
<rect x="37.6738" y="318.314" width="171.535" height="37.653" transform="rotate(90 37.6738 318.314)" fill="black"/>
<rect width="446.531" height="37.6479" transform="matrix(-0.707203 0.70701 -0.707203 -0.70701 342.413 26.7097)" fill="black"/>
<rect width="414.6" height="37.6479" transform="matrix(-0.707203 0.70701 -0.707203 -0.70701 412.567 56.9346)" fill="black"/>
<rect width="420.795" height="37.6479" transform="matrix(-0.707203 0.70701 -0.707203 -0.70701 472.184 102.649)" fill="black"/>
<rect width="430.329" height="37.6479" transform="matrix(-0.707223 0.70699 -0.707223 -0.70699 499.997 185.753)" fill="black"/>
<rect width="103.384" height="37.6479" transform="matrix(0.707203 0.70701 -0.707203 0.70701 110.847 305.055)" fill="black"/>
<rect width="132.008" height="37.6474" transform="matrix(0.731335 0.682019 -0.681978 0.731373 403.383 0.00170898)" fill="black"/>
<rect width="91.5045" height="37.6479" transform="matrix(0.707203 0.70701 -0.707203 0.70701 29.7935 395.409)" fill="black"/>
<rect x="111.077" y="306.38" width="35.2603" height="88.175" transform="rotate(90 111.077 306.38)" fill="black"/>
<rect x="403.255" width="35.2603" height="88.175" transform="rotate(90 403.255 0)" fill="black"/>
</g>
<defs>
<clipPath id="clip0_25_16">
<rect width="489.99" height="500" fill="white" transform="matrix(0 1 -1 0 500 0)"/>
</clipPath>
</defs>
</svg>
